<svg xmlns="http://www.w3.org/2000/svg" width="256" height="256" viewBox="0 0 256 256">
  <defs>
    <radialGradient id="g1" cx="50%" cy="45%" r="60%">
      <stop offset="0%" stop-color="#8BFFB7"></stop>
      <stop offset="60%" stop-color="#00E676"></stop>
      <stop offset="100%" stop-color="#00B85A"></stop>
    </radialGradient>
    <filter id="glow" x="-40%" y="-40%" width="180%" height="180%">
      <feGaussianBlur stdDeviation="6" result="b"></feGaussianBlur>
      <feMerge>
        <feMergeNode in="b"></feMergeNode>
        <feMergeNode in="b"></feMergeNode>
        <feMergeNode in="SourceGraphic"></feMergeNode>
      </feMerge>
    </filter>
    <mask id="hole">
      <rect width="256" height="256" fill="#fff"></rect>
      <!-- knockout center for your text -->
      <circle cx="128" cy="128" r="62" fill="#000"></circle>
    </mask>
    <pattern id="segments" width="1" height="1" patternUnits="objectBoundingBox">
      <g transform="translate(128,128)">
        <!-- 12 alternating wedges -->
        <g fill="#E8FFF2">
          <path d="M0,-112 A112,112 0 0 1 28.95,-108 L22.1,-84 A88,88 0 0 0 0,-88Z"></path>
          <path d="M108,-29 A112,112 0 0 1 112,0 L88,0 A88,88 0 0 0 84,-22.1Z"></path>
          <path d="M29,108 A112,112 0 0 1 0,112 L0,88 A88,88 0 0 0 22.1,84Z"></path>
          <path d="M-108,29 A112,112 0 0 1 -112,0 L-88,0 A88,88 0 0 0 -84,22.1Z"></path>
          <path d="M-29,-108 A112,112 0 0 1 0,-112 L0,-88 A88,88 0 0 0 -22.1,-84Z"></path>
          <path d="M-108,-29 A112,112 0 0 1 -112,0 L-88,0 A88,88 0 0 0 -84,-22.1Z"></path>
        </g>
      </g>
    </pattern>
  </defs>

  <!-- outer glow ring -->
  <circle cx="128" cy="128" r="118" fill="none" stroke="#00E676" stroke-width="6" opacity=".55" filter="url(#glow)"></circle>
  <!-- base chip -->
  <circle cx="128" cy="128" r="112" fill="url(#g1)"></circle>
  <!-- segments (light wedges) -->
  <circle cx="128" cy="128" r="112" fill="url(#segments)" opacity=".22"></circle>
  <!-- inner ridge -->
  <circle cx="128" cy="128" r="88" fill="none" stroke="rgba(255,255,255,.65)" stroke-width="2"></circle>
  <!-- center knockout for text -->
  <g mask="url(#hole)">
    <circle cx="128" cy="128" r="112" fill="none"></circle>
  </g>
  <!-- subtle inner shadow ring -->
  <circle cx="128" cy="128" r="62" fill="none" stroke="rgba(0,0,0,.35)" stroke-width="2"></circle>
</svg>
